<svg width="24" height="24" viewBox="0 0 24 24" fill="none" xmlns="http://www.w3.org/2000/svg">
<path d="M3 3C3 2.80109 3.07902 2.61032 3.21967 2.46967C3.36032 2.32902 3.55109 2.25 3.75 2.25H20.25C20.4489 2.25 20.6397 2.32902 20.7803 2.46967C20.921 2.61032 21 2.80109 21 3C21 3.19891 20.921 3.38968 20.7803 3.53033C20.6397 3.67098 20.4489 3.75 20.25 3.75H18C18 4.167 17.697 4.5 17.3175 4.5H16.875V6.8175C17.5125 6.99 17.985 7.5825 17.985 8.2725C17.985 8.7945 17.715 9.2565 17.3077 9.525L17.9977 10.5H21.3645C21.4652 10.4992 21.5621 10.5381 21.6343 10.6083C21.7064 10.6785 21.748 10.7743 21.75 10.875C21.75 10.9245 21.7402 10.9735 21.7212 11.0192C21.7021 11.0649 21.6742 11.1064 21.6391 11.1412C21.604 11.1761 21.5623 11.2037 21.5164 11.2223C21.4706 11.241 21.4215 11.2504 21.372 11.25H21V13.5H21.3645C21.4652 13.4992 21.5621 13.5381 21.6343 13.6083C21.7064 13.6785 21.748 13.7743 21.75 13.875C21.748 13.9757 21.7064 14.0715 21.6343 14.1417C21.5621 14.2119 21.4652 14.2508 21.3645 14.25H20.601C20.6117 14.3186 20.6027 14.3888 20.5751 14.4526C20.5475 14.5163 20.5024 14.5709 20.445 14.61C20.3775 14.655 20.3025 14.6775 20.2275 14.6775C20.1075 14.6775 19.995 14.625 19.92 14.52L19.7288 14.25H13.2413L13.05 14.52C12.975 14.625 12.8625 14.6775 12.7425 14.6775C12.6675 14.6775 12.5925 14.655 12.525 14.61C12.4676 14.5709 12.4225 14.5163 12.3949 14.4526C12.3673 14.3888 12.3583 14.3186 12.369 14.25H11.6355C11.5348 14.2508 11.4379 14.2119 11.3657 14.1417C11.2936 14.0715 11.252 13.9757 11.25 13.875C11.25 13.6695 11.424 13.5 11.6355 13.5H12V11.25H11.6355C11.5348 11.2508 11.4379 11.2119 11.3657 11.1417C11.2936 11.0715 11.252 10.9757 11.25 10.875C11.25 10.6695 11.424 10.5 11.6355 10.5H14.973L15.663 9.525C15.455 9.38876 15.2842 9.20298 15.1659 8.98435C15.0475 8.76572 14.9854 8.52111 14.985 8.2725C14.985 8.0625 15.1575 7.8975 15.36 7.8975C15.57 7.8975 15.735 8.0625 15.735 8.2725C15.735 8.5425 15.8798 8.781 16.0958 8.913L16.1595 8.823C16.176 8.79558 16.1959 8.77037 16.2188 8.748C16.2537 8.71297 16.2952 8.6852 16.3409 8.66628C16.3866 8.64736 16.4355 8.63766 16.485 8.63775C16.5825 8.637 16.68 8.67525 16.7512 8.748C16.7744 8.77032 16.7945 8.79553 16.8113 8.823L16.8743 8.913C17.0903 8.781 17.235 8.5425 17.235 8.2725C17.235 7.86 16.9125 7.53 16.5 7.5225C16.3725 7.5225 16.2525 7.455 16.185 7.35C16.1407 7.29184 16.1169 7.22061 16.1175 7.1475C16.1175 7.1175 16.1175 7.095 16.125 7.065V4.5H15.6825C15.303 4.5 15 4.167 15 3.75H10.5V19.5H11.0625C11.58 19.5 12 19.92 12 20.4375V21H21.0075C21.8325 21 22.5 21.6712 22.5 22.5H1.5C1.5 21.6712 2.1675 21 2.9925 21H3.75V20.4375C3.75 19.92 4.17 19.5 4.6875 19.5H5.25V3.75H3.75C3.55109 3.75 3.36032 3.67098 3.21967 3.53033C3.07902 3.38968 3 3.19891 3 3ZM6 5.25V6.89325L9.2865 5.25H6ZM6.4635 19.5H9.75V17.8568L6.4635 19.5ZM9.2865 17.25H6V18.8932L9.2865 17.25ZM6.4635 7.5H9.75V5.85675L6.4635 7.5ZM9.2865 8.25H6V9.89325L9.2865 8.25ZM6.4635 10.5H9.75V8.85675L6.4635 10.5ZM9.2865 11.25H6V12.8932L9.2865 11.25ZM6.4635 13.5H9.75V11.8568L6.4635 13.5ZM9.2865 14.25H6V15.8932L9.2865 14.25ZM6.4635 16.5H9.75V14.8568L6.4635 16.5ZM16.4115 9.771L15.8955 10.5H17.0745L16.5585 9.771C16.5095 9.7734 16.4605 9.7734 16.4115 9.771ZM14.442 11.25H12.75V13.5H12.849L14.442 11.25ZM13.7723 13.5H19.1978L17.6055 11.25H15.3645L13.7723 13.5ZM18.5287 11.25L20.121 13.5H20.25V11.25H18.5287Z" fill="white"/>
</svg>
