<svg width="25" height="24" viewBox="0 0 25 24" fill="none" xmlns="http://www.w3.org/2000/svg">
<g clip-path="url(#clip0_105_303)">
<path d="M13.3539 13.537C13.3059 15.327 13.4279 17.399 13.5029 18.454C14.4629 18.59 15.1359 18.91 15.1359 19.284C15.1359 19.781 13.9429 20.354 12.4709 20.354C10.9989 20.354 9.80585 19.781 9.80585 19.284C9.80585 18.91 10.4789 18.59 11.4389 18.454C11.5139 17.399 11.6359 15.327 11.5889 13.537C11.5449 11.924 10.8099 10.446 9.91285 9.71603C9.18785 9.12603 8.73885 8.28903 8.74685 7.36203C8.76285 5.59703 10.4299 4.17603 12.4709 4.17603C14.5119 4.17603 16.1789 5.59603 16.1939 7.36203C16.2019 8.28903 15.7539 9.12503 15.0289 9.71603C14.1319 10.446 13.3969 11.924 13.3539 13.537ZM19.5679 20.133C19.8549 20.018 20.1799 19.956 20.5189 19.943C20.5119 19.703 20.3529 19.271 20.2159 19.066C19.6559 18.966 18.9399 18.753 18.5579 18.384C18.4957 18.3361 18.4462 18.2737 18.4138 18.2022C18.3814 18.1307 18.367 18.0524 18.3719 17.974C18.3979 17.828 18.5049 17.721 18.6499 17.645C18.3032 17.4466 17.9422 17.2745 17.5699 17.13C17.0014 17.1946 16.4259 17.1525 15.8729 17.006C15.5699 16.916 15.1089 16.766 15.0529 16.457C14.8929 16.427 14.5129 16.374 14.2869 16.345C14.2594 16.4474 14.2361 16.5508 14.2169 16.655C14.1725 16.8556 14.2056 17.0656 14.3094 17.2428C14.4133 17.4201 14.5802 17.5516 14.7769 17.611C15.7769 17.902 16.5329 18.381 16.7509 18.97C17.1909 20.16 15.3379 21.323 12.5199 21.323C9.69985 21.323 7.84685 20.16 8.28685 18.97C8.49985 18.396 9.22685 17.926 10.1899 17.633C10.3958 17.5693 10.5705 17.4309 10.6795 17.2449C10.7885 17.0589 10.8239 16.8388 10.7789 16.628L10.7189 16.345C10.4279 16.375 9.93985 16.446 9.68785 16.493C9.66885 16.806 9.21185 16.959 8.92785 17.057C8.37234 17.2103 7.79338 17.2602 7.21985 17.204C6.85649 17.3562 6.50487 17.535 6.16785 17.739C6.71185 17.969 6.48385 18.475 6.07785 18.709C5.67085 18.962 5.23585 19.118 4.69785 19.219C4.64685 19.307 4.58685 19.517 4.53485 19.657C4.51885 19.793 4.47185 20.024 4.48185 20.116C5.12685 20.136 5.74985 20.268 6.10185 20.721C6.38285 21.229 6.07785 21.697 5.59185 22.085C5.98385 22.401 6.57785 22.758 7.04185 22.953C7.90178 22.6026 8.84488 22.5092 9.75685 22.684C10.4749 22.844 11.2629 23.265 11.4989 23.973C12.1339 24.015 13.3939 24.013 14.0269 23.932C14.2089 23.201 14.9339 22.785 15.6329 22.606C16.5366 22.4076 17.4783 22.4747 18.3449 22.799C18.7009 22.619 19.3749 22.197 19.6509 21.899C19.1769 21.541 18.7779 21.105 19.0209 20.574C19.1059 20.384 19.3219 20.244 19.5679 20.134V20.133ZM10.0279 14.285C10.0279 14.285 10.4459 12.699 8.62785 10.653C7.82309 9.7394 7.37934 8.56354 7.37985 7.34603C7.3825 6.00894 7.91531 4.72747 8.86143 3.78266C9.80755 2.83785 11.0898 2.30682 12.4269 2.30603C15.2489 2.24103 17.5949 4.52403 17.5909 7.34603C17.593 8.56353 17.149 9.73963 16.3429 10.652C14.7289 12.268 14.9429 14.285 14.9429 14.285C16.3812 13.7895 17.6305 12.8599 18.5181 11.6244C19.4058 10.3889 19.8882 8.90834 19.8989 7.38703C19.9339 3.36603 16.5089 -0.0829732 12.4849 0.00202679C8.45785 -0.0809732 5.03785 3.36603 5.07185 7.38703C5.08246 8.90834 5.56488 10.3889 6.45256 11.6244C7.34025 12.8599 8.58945 13.7895 10.0279 14.285Z" fill="white"/>
</g>
<defs>
<clipPath id="clip0_105_303">
<rect width="24" height="24" fill="white" transform="translate(0.5)"/>
</clipPath>
</defs>
</svg>
