<svg width="25" height="24" viewBox="0 0 25 24" fill="none" xmlns="http://www.w3.org/2000/svg">
<path d="M21.4489 3.75655C21.4381 3.57307 21.3604 3.39991 21.2305 3.26994C21.1005 3.13998 20.9273 3.06226 20.7439 3.05155C13.6067 2.63249 7.88979 4.78124 5.45229 8.81249C4.60744 10.1915 4.19109 11.7903 4.25604 13.4062C4.30948 14.8987 4.74448 16.4062 5.54885 17.8922L3.71979 19.7203C3.57906 19.861 3.5 20.0519 3.5 20.2509C3.5 20.4499 3.57906 20.6408 3.71979 20.7815C3.86052 20.9223 4.05139 21.0013 4.25042 21.0013C4.44944 21.0013 4.64031 20.9223 4.78104 20.7815L6.60917 18.9525C8.09417 19.7559 9.6026 20.1909 11.0942 20.2444C11.1985 20.2481 11.3026 20.25 11.4064 20.25C12.9174 20.254 14.3997 19.8379 15.6879 19.0481C19.7192 16.6106 21.8689 10.8947 21.4489 3.75655ZM14.9145 17.7656C12.7817 19.0575 10.257 19.0781 7.72292 17.8378L16.032 9.52967C16.1017 9.45999 16.1569 9.37727 16.1947 9.28622C16.2324 9.19518 16.2518 9.0976 16.2518 8.99905C16.2518 8.9005 16.2324 8.80292 16.1947 8.71188C16.1569 8.62083 16.1017 8.53811 16.032 8.46842C15.9623 8.39874 15.8796 8.34347 15.7885 8.30575C15.6975 8.26804 15.5999 8.24863 15.5014 8.24863C15.4028 8.24863 15.3052 8.26804 15.2142 8.30575C15.1231 8.34347 15.0404 8.39874 14.9707 8.46842L6.6626 16.7812C5.42604 14.25 5.44385 11.7187 6.73479 9.58967C8.80573 6.17061 13.7285 4.29842 19.9826 4.52155C20.2067 10.7709 18.3335 15.6947 14.9145 17.7656Z" fill="white"/>
</svg>
