<svg width="24" height="24" viewBox="0 0 24 24" fill="none" xmlns="http://www.w3.org/2000/svg">
<path d="M14.8812 5.186C13.4602 4.314 9.80817 2.642 6.52017 3.069C8.51017 4.439 9.55617 5.175 12.3802 7.689M18.8152 9.119C19.6872 10.541 21.3592 14.192 20.9322 17.48C19.5622 15.491 18.8262 14.445 16.3122 11.621M10.4742 11.418L3.42417 18.468C2.85217 19.04 2.86117 19.975 3.44417 20.558C4.02617 21.14 4.96217 21.148 5.53417 20.577L12.5832 13.527M11.9872 9.226L14.7752 12.013C15.0852 12.323 15.5852 12.324 15.8942 12.016L19.3472 8.562C19.4205 8.4885 19.4786 8.40126 19.5182 8.30527C19.5578 8.20928 19.5781 8.10642 19.5779 8.00259C19.5778 7.89875 19.5571 7.79597 19.5172 7.70012C19.4772 7.60428 19.4188 7.51724 19.3452 7.444L16.5572 4.656C16.4839 4.5824 16.3969 4.52395 16.301 4.48401C16.2052 4.44407 16.1024 4.42342 15.9986 4.42323C15.8947 4.42304 15.7919 4.44333 15.6959 4.48293C15.5999 4.52253 15.5127 4.58066 15.4392 4.654L11.9852 8.107C11.9117 8.18052 11.8534 8.26783 11.8137 8.36391C11.774 8.45999 11.7537 8.56296 11.7539 8.66692C11.7541 8.77087 11.7748 8.87377 11.8148 8.96971C11.8548 9.06565 11.9134 9.15274 11.9872 9.226Z" stroke="white" stroke-width="1.5" stroke-linecap="round" stroke-linejoin="round"/>
</svg>
