<svg width="25" height="24" viewBox="0 0 25 24" fill="none" xmlns="http://www.w3.org/2000/svg">
<g clip-path="url(#clip0_169_199)">
<path d="M13.652 0.682001C13.9963 0.480976 14.3878 0.375042 14.7865 0.375042C15.1852 0.375042 15.5767 0.480976 15.921 0.682001L15.928 0.686001L22.885 4.962C23.2275 5.16297 23.5115 5.4499 23.709 5.79437C23.9065 6.13885 24.0106 6.52893 24.011 6.926V14.442C24.011 15.252 23.579 16.002 22.878 16.41L22.876 16.411L10.912 23.448L10.908 23.451C10.202 23.861 9.33002 23.861 8.62402 23.451L8.59802 23.436L2.09502 18.934C1.76053 18.7319 1.48389 18.4468 1.29188 18.1064C1.09987 17.766 0.998996 17.3818 0.999023 16.991V9.438C0.999023 9.046 1.09902 8.668 1.28302 8.338L1.28602 8.332L1.30002 8.306C1.49702 7.964 1.78002 7.679 2.12002 7.479H2.12202L13.652 0.682001ZM14.409 1.977H14.408L3.14802 8.616L9.39602 12.863C9.5128 12.9259 9.64369 12.958 9.77632 12.9563C9.90896 12.9545 10.039 12.919 10.154 12.853L21.788 6.049L15.159 1.975C15.0447 1.90963 14.9153 1.87549 14.7836 1.87602C14.652 1.87655 14.5228 1.91172 14.409 1.978V1.977ZM9.01702 14.33C8.88066 14.2825 8.74908 14.2222 8.62402 14.15L8.60102 14.136L2.49902 9.989V16.992C2.49902 17.267 2.64402 17.52 2.87802 17.656L2.90302 17.67L9.01702 21.902V14.33ZM18.5 9.709L15.25 11.609V19.157L18.5 17.245V9.709ZM10.91 14.147L10.908 14.149C10.7836 14.2211 10.6527 14.2814 10.517 14.329V21.941L13.75 20.039V12.487L10.91 14.147ZM20 8.831V16.363L22.124 15.113C22.2414 15.0445 22.3388 14.9466 22.4067 14.8289C22.4746 14.7112 22.5105 14.5779 22.511 14.442V7.363L20 8.831Z" fill="white"/>
</g>
<defs>
<clipPath id="clip0_169_199">
<rect width="24" height="24" fill="white" transform="translate(0.5)"/>
</clipPath>
</defs>
</svg>
