<svg width="25" height="24" viewBox="0 0 25 24" fill="none" xmlns="http://www.w3.org/2000/svg">
<path fill-rule="evenodd" clip-rule="evenodd" d="M17.1095 6.605L17.0645 6.57C16.978 5.913 16.6635 5.2285 16.1725 4.6515C15.375 3.714 14.075 3 12.335 3C10.62 3 9.41147 3.782 8.69847 4.7515C8.36568 5.19987 8.12799 5.7115 7.99997 6.255C7.97672 6.35678 7.95803 6.45955 7.94397 6.563L7.88997 6.6045C7.32797 7.04 6.91547 7.568 7.01347 8.1735C7.10747 8.7585 7.63647 9.1145 8.12847 9.332C8.2538 9.38733 8.3883 9.43933 8.53197 9.488C8.45968 10.0516 8.50831 10.6242 8.67463 11.1676C8.84094 11.711 9.12113 12.2127 9.49652 12.6393C9.87191 13.0659 10.3339 13.4076 10.8517 13.6417C11.3695 13.8758 11.9312 13.9969 12.4995 13.9969C13.0677 13.9969 13.6295 13.8758 14.1473 13.6417C14.6651 13.4076 15.127 13.0659 15.5024 12.6393C15.8778 12.2127 16.158 11.711 16.3243 11.1676C16.4906 10.6242 16.5393 10.0516 16.467 9.488C16.6106 9.43967 16.7451 9.38767 16.8705 9.332C17.3625 9.1145 17.891 8.7585 17.9855 8.1735C18.0835 7.568 17.6715 7.0405 17.1095 6.605ZM8.97197 7.3355C8.90697 7.1485 8.88997 6.848 8.97447 6.4765C9.05747 6.114 9.22947 5.7165 9.49947 5.3485V6.75C9.49947 6.88261 9.55215 7.00979 9.64592 7.10355C9.73968 7.19732 9.86686 7.25 9.99947 7.25C10.1321 7.25 10.2593 7.19732 10.353 7.10355C10.4468 7.00979 10.4995 6.88261 10.4995 6.75V4.455C10.911 4.221 11.4085 4.0575 11.9995 4.0125V5.75C11.9995 5.88261 12.0521 6.00979 12.1459 6.10355C12.2397 6.19732 12.3669 6.25 12.4995 6.25C12.6321 6.25 12.7593 6.19732 12.853 6.10355C12.9468 6.00979 12.9995 5.88261 12.9995 5.75V4.0435C13.5275 4.11 14.0372 4.2799 14.4995 4.5435V6.75C14.4995 6.88261 14.5521 7.00979 14.6459 7.10355C14.7397 7.19732 14.8669 7.25 14.9995 7.25C15.1321 7.25 15.2593 7.19732 15.353 7.10355C15.4468 7.00979 15.4995 6.88261 15.4995 6.75V5.409C16.052 6.117 16.1815 6.881 16.026 7.3395C15.9874 7.45298 15.991 7.57652 16.0359 7.68762C16.0808 7.79872 16.1641 7.89 16.2707 7.94483C16.3772 7.99965 16.5 8.01438 16.6165 7.98633C16.733 7.95828 16.8355 7.88932 16.9055 7.792C17.004 7.9295 17.0005 8.0025 16.9985 8.014C16.992 8.054 16.9155 8.219 16.466 8.418C16.271 8.504 16.039 8.5815 15.7785 8.65L15.7665 8.653C15.484 8.726 15.1695 8.788 14.833 8.839C14.2089 8.92893 13.5799 8.98069 12.9495 8.994C12.5161 9.00499 12.0825 9.00032 11.6495 8.98C11.1514 8.95742 10.6548 8.91003 10.1615 8.838C9.84877 8.79268 9.53867 8.73093 9.23247 8.653L9.22047 8.65C8.98543 8.5913 8.75552 8.51371 8.53297 8.418C8.08347 8.219 8.00697 8.054 8.00047 8.014C7.99847 8.0025 7.99497 7.9295 8.09347 7.792C8.16352 7.88976 8.26646 7.95899 8.38341 7.98701C8.50037 8.01503 8.62351 7.99995 8.73025 7.94455C8.83699 7.88914 8.92019 7.79712 8.96458 7.68535C9.00898 7.57358 9.0116 7.44905 8.97197 7.3355ZM9.51047 9.7405C9.6768 9.77283 9.84814 9.80233 10.0245 9.829C10.5585 9.909 11.1335 9.96 11.7185 9.984C12.2399 10.0055 12.762 10.0055 13.2835 9.984C13.8655 9.96 14.4385 9.909 14.97 9.829C15.148 9.803 15.3208 9.7735 15.4885 9.7405C15.524 10.1546 15.4732 10.5715 15.3391 10.9649C15.205 11.3583 14.9907 11.7195 14.7097 12.0257C14.4287 12.3319 14.0871 12.5764 13.7066 12.7436C13.3261 12.9108 12.9151 12.9972 12.4995 12.9972C12.0839 12.9972 11.6728 12.9108 11.2923 12.7436C10.9119 12.5764 10.5703 12.3319 10.2893 12.0257C10.0082 11.7195 9.79391 11.3583 9.65984 10.9649C9.52578 10.5715 9.47491 10.1546 9.51047 9.7405Z" fill="white"/>
<path fill-rule="evenodd" clip-rule="evenodd" d="M15 14.245C15.329 14.3025 15.664 14.3695 16 14.446C18.7215 15.0675 21.5 16.31 21.5 18V21H3.5V18C3.5 16.31 6.2785 15.0675 9 14.446C9.33157 14.3705 9.66501 14.3035 10 14.245V16.5H15V14.245ZM8 15.745C8.327 15.645 8.6625 15.5545 9 15.473V17.5H16V15.4735C16.5066 15.5944 17.0071 15.7392 17.5 15.9075V20H18.5V16.2985C18.6453 16.3632 18.785 16.4297 18.919 16.498C19.4875 16.787 19.909 17.085 20.176 17.37C20.4385 17.65 20.5 17.8565 20.5 18V20H4.5V18C4.5 17.8565 4.5615 17.65 4.824 17.37C5.091 17.085 5.5125 16.787 6.081 16.498C6.3655 16.353 6.674 16.217 7 16.0905V20H8V15.745Z" fill="white"/>
</svg>
