<svg width="13" height="13" viewBox="0 0 13 13" fill="none" xmlns="http://www.w3.org/2000/svg">
<path d="M11.8981 8.40375L8.95376 7.08437L8.94563 7.08062C8.79278 7.01524 8.62603 6.98901 8.46049 7.00428C8.29494 7.01956 8.13581 7.07587 7.99751 7.16812C7.98121 7.17886 7.96556 7.19055 7.95063 7.20312L6.42938 8.5C5.46563 8.03187 4.47063 7.04437 4.00251 6.09312L5.30126 4.54875C5.31376 4.53312 5.32563 4.5175 5.33688 4.50062C5.42715 4.36268 5.48192 4.20457 5.49631 4.04035C5.5107 3.87614 5.48428 3.71091 5.41938 3.55937V3.55187L4.09626 0.602495C4.01047 0.404536 3.86296 0.23963 3.67575 0.132395C3.48854 0.0251593 3.27166 -0.0186538 3.05751 0.0074956C2.21061 0.118937 1.43324 0.534851 0.870589 1.17756C0.307935 1.82026 -0.00152558 2.6458 5.6554e-06 3.5C5.6554e-06 8.4625 4.03751 12.5 9.00001 12.5C9.8542 12.5015 10.6797 12.1921 11.3224 11.6294C11.9651 11.0668 12.3811 10.2894 12.4925 9.4425C12.5187 9.22841 12.475 9.01159 12.3679 8.82439C12.2607 8.63719 12.096 8.48963 11.8981 8.40375ZM9.00001 11.5C6.87898 11.4977 4.8455 10.6541 3.34571 9.15429C1.84592 7.6545 1.00232 5.62102 1.00001 3.5C0.997654 2.88968 1.21754 2.29937 1.61859 1.83931C2.01964 1.37926 2.57444 1.08091 3.17938 0.999996C3.17913 1.00249 3.17913 1.005 3.17938 1.0075L4.49188 3.945L3.20001 5.49125C3.18687 5.50631 3.17495 5.52241 3.16438 5.53937C3.07033 5.68369 3.01515 5.84987 3.0042 6.02178C2.99325 6.1937 3.0269 6.36553 3.10188 6.52062C3.66813 7.67875 4.83501 8.83687 6.00563 9.4025C6.16186 9.47678 6.33468 9.50926 6.50722 9.49677C6.67976 9.48428 6.8461 9.42725 6.99001 9.33125C7.00609 9.32048 7.02153 9.3088 7.03626 9.29625L8.55563 8L11.4931 9.31562H11.5C11.4201 9.92141 11.1222 10.4773 10.662 10.8794C10.2019 11.2814 9.61104 11.5021 9.00001 11.5Z" fill="#E8520C"/>
</svg>
