<svg width="14" height="15" viewBox="0 0 14 15" fill="none" xmlns="http://www.w3.org/2000/svg">
<path d="M11.7 2.77335C11.0887 2.15609 10.3607 1.66666 9.55837 1.33359C8.75603 1.00052 7.89542 0.830471 7.0267 0.833349C3.3867 0.833349 0.420033 3.80002 0.420033 7.44002C0.420033 8.60668 0.726699 9.74002 1.30003 10.74L0.366699 14.1667L3.8667 13.2467C4.83337 13.7734 5.92003 14.0534 7.0267 14.0534C10.6667 14.0534 13.6334 11.0867 13.6334 7.44668C13.6334 5.68002 12.9467 4.02002 11.7 2.77335ZM7.0267 12.9333C6.04003 12.9333 5.07337 12.6667 4.2267 12.1667L4.0267 12.0467L1.9467 12.5933L2.50003 10.5667L2.3667 10.36C1.8184 9.48472 1.52732 8.47287 1.5267 7.44002C1.5267 4.41335 3.99337 1.94668 7.02003 1.94668C8.4867 1.94668 9.8667 2.52002 10.9 3.56002C11.4118 4.06926 11.8173 4.67504 12.0931 5.34224C12.3689 6.00943 12.5095 6.72474 12.5067 7.44668C12.52 10.4734 10.0534 12.9333 7.0267 12.9333ZM10.04 8.82668C9.87336 8.74668 9.06003 8.34668 8.91337 8.28668C8.76003 8.23335 8.65337 8.20668 8.54003 8.36668C8.4267 8.53335 8.11337 8.90668 8.02003 9.01335C7.9267 9.12668 7.8267 9.14002 7.66003 9.05335C7.49337 8.97335 6.96003 8.79335 6.33337 8.23335C5.84003 7.79335 5.51337 7.25335 5.41337 7.08668C5.32003 6.92002 5.40003 6.83335 5.4867 6.74668C5.56003 6.67335 5.65337 6.55335 5.73337 6.46002C5.81337 6.36668 5.8467 6.29335 5.90003 6.18668C5.95337 6.07335 5.9267 5.98002 5.8867 5.90002C5.8467 5.82002 5.51337 5.00668 5.38003 4.67335C5.2467 4.35335 5.1067 4.39335 5.0067 4.38668H4.6867C4.57337 4.38668 4.40003 4.42668 4.2467 4.59335C4.10003 4.76002 3.67337 5.16002 3.67337 5.97335C3.67337 6.78668 4.2667 7.57335 4.3467 7.68002C4.4267 7.79335 5.51337 9.46002 7.1667 10.1734C7.56003 10.3467 7.8667 10.4467 8.1067 10.52C8.50003 10.6467 8.86003 10.6267 9.1467 10.5867C9.4667 10.54 10.1267 10.1867 10.26 9.80002C10.4 9.41335 10.4 9.08668 10.3534 9.01335C10.3067 8.94002 10.2067 8.90668 10.04 8.82668Z" fill="#E8520C"/>
</svg>
